<svg xmlns="http://www.w3.org/2000/svg" viewBox="0 0 500 500">
  <g transform="matrix(0.065238, 0, 0, -0.065238, -87.86911, 582.805359)" fill="#091413" stroke="none" style="">
    <path d="M8238 7312 l-457 -2 -228 -146 c-125 -81 -331 -213 -458 -294 -202
-129 -411 -264 -705 -453 -47 -30 -233 -150 -415 -267 -181 -116 -331 -216
-333 -220 -2 -5 40 -116 93 -247 137 -334 394 -953 405 -972 8 -16 65 95 460
905 65 133 124 243 132 247 8 3 142 89 297 191 213 140 281 180 275 164 -4
-13 -198 -410 -432 -883 -234 -473 -494 -1001 -579 -1174 -90 -185 -157 -311
-162 -305 -10 10 -105 235 -376 889 -98 237 -182 434 -186 439 -6 6 -624 -379
-658 -410 -4 -4 194 -488 656 -1604 58 -140 110 -261 116 -267 7 -10 106 -13
434 -13 l424 0 93 193 c113 231 255 522 616 1257 150 305 305 623 345 705 40
83 195 400 345 705 611 1244 761 1553 758 1559 -2 3 -209 5 -460 3z"></path>
    <path d="M3731 7068 c-178 -363 -1909 -3840 -1996 -4009 -41 -80 -75 -151 -75
-158 0 -8 120 -11 455 -11 l455 0 78 49 c42 26 313 200 602 386 289 186 739
475 1000 643 261 167 479 308 483 312 9 8 -18 78 -213 550 -56 135 -140 343
-188 462 -48 120 -90 218 -93 218 -3 0 -131 -256 -285 -568 l-281 -568 -292
-188 c-161 -103 -294 -186 -297 -184 -4 4 231 483 861 1753 175 354 310 614
313 605 3 -8 75 -184 160 -390 84 -206 203 -496 264 -645 61 -148 111 -271
113 -273 1 -2 151 93 333 209 l331 212 -15 36 c-22 50 -432 1041 -603 1456
l-140 340 -425 3 -426 2 -119 -242z"></path>
  </g>
</svg>